<?xml version="1.0" encoding="utf-8"?>
<!-- Generator: Adobe Illustrator 23.0.3, SVG Export Plug-In . SVG Version: 6.00 Build 0)  -->
<svg version="1.1" id="Capa_1" xmlns="http://www.w3.org/2000/svg" xmlns:xlink="http://www.w3.org/1999/xlink" x="0px" y="0px"
	 viewBox="0 0 512 512" style="enable-background:new 0 0 512 512;" xml:space="preserve">
<style type="text/css">
	.st0{fill:#41D7F9;}
	.st1{fill:#AECE3C;}
	.st2{fill:#0FCBEA;}
	.st3{fill:#9DBF3D;}
</style>
<circle class="st0" cx="256" cy="256" r="256"/>
<path class="st1" d="M285.8,1.8l-10.6,32.9c-2.6,8-9,14.1-17,16.3l-26.5,7.3c-2.1,0.6-4.3,0.9-6.6,0.9h-39.7c-4.1,0-7.6,3.1-8.2,7.2
	l-4.6,34.1l-25.3,1.3c-4.3,0.2-7.6,3.7-7.8,7.9l-0.9,22c-0.2,5,4,9,8.9,8.6l16.9-1.4c4.3-0.4,8.3-2.6,10.8-6.1L191,111l33.4-1.2
	c7.1-0.3,12.2,6.9,9.6,13.6c-5.8,14.9-5.8,16.2-5.8,17.5c0,4.6,3.7,8.3,8.3,8.3c4.1,0,7.5-3,8.1-6.9c0.6-1.9,3.1-8.5,6.4-16.9
	c1.4-3.5,6.1-4,8.2-0.9l2.1,3.2c3.9,6,11.3,8.7,18.2,6.8l14.7-4.1c4.1-1.1,7.4-4.2,8.9-8.2l2.8-7.5c2-5.3,6.6-9.2,12.1-10.3l9.5-2
	c6.5-1.3,13.4,2.6,14.5,9.1c1.2,6.7-3.5,12.7-10,13.5l-23,0.6c-4.7,0.1-8.4,3.9-8.5,8.6l-0.1,2.2c0,1.8,0.9,3.4,2.5,4.2l13.2,6.7
	c5,2.6,6.7,9,3.5,13.6l0,0c-1.7,2.6-4.7,4.1-7.8,4.1h-69.7c-1.8,0-3.6-0.3-5.3-1l-58.5-23c-4.3-1.7-9.2-0.8-12.7,2.4l-55.4,51.2
	c-4.4,4.1-6.3,10.2-4.8,16.1l11.3,45.7c1.7,7.1,7.9,12.2,15.2,12.5l62.4,3.4c12.3,0.7,22.2,10.2,23.3,22.5l4.7,51.4
	c0.4,3.8,1.4,7.6,3,11c5.3,11,17.5,35.9,24.3,44.5c8.8,11.1,30.4,11.5,37.7,4.9l50.7-41.5c4.2-3.9,7-9.1,7.8-14.7l5.9-40.8
	l40.3-44.4c3.9-4.3,2.2-11-2.8-13.1l-0.7,0.5c-3.1,2-6.6,3.3-10.2,3.6c-0.6,0.1-1.3,0.1-1.9,0.1c-7.5,0-14.4-3.8-18.4-10.2
	l-30.8-48.8c-2.4-3.9-1.3-9,2.6-11.4s9-1.3,11.4,2.6l30.8,48.8c1.1,1.7,2.9,2.6,4.9,2.5c0.9-0.1,1.7-0.4,2.5-0.9l41.6-22.8
	c4.3-2.4,5.5-8.1,2.4-11.9l0,0c-1.7-2.1-4.4-3.3-7.1-3l-8.7,1c-2.3,0.3-4.7-0.5-6.5-2.1L375,176.8c-3.4-3-3.7-8.3-0.6-11.7
	c3-3.4,8.2-3.7,11.7-0.6l23.4,20.9l14.2-1.6c2.9-0.4,5.9,0.9,7.6,3.3l2.7,3.7l13.9-1.7c6.7-0.8,13.3,2.6,16.5,8.5l28,51.7
	c2,3.8,5.4,6.6,9.5,7.9l10.1,3.5c0-1.6,0.1-3.2,0.1-4.9C512,124.7,413.1,16.6,285.8,1.8z M392.8,143.1c-1.4,1-3,1.4-4.6,1.4
	c-2.7,0-5.3-1.3-6.8-3.6l-17.2-25.5c-2.6-3.8-1.6-8.9,2.2-11.5c3.8-2.6,8.9-1.6,11.5,2.2l17.2,25.5
	C397.5,135.4,396.5,140.5,392.8,143.1z"/>
<path class="st2" d="M340,428C198.6,428,84,313.4,84,172c0-49.2,13.9-95.1,37.9-134.1C48.8,83,0,163.8,0,256
	c0,141.4,114.6,256,256,256c92.2,0,173-48.8,218.1-121.9C435.1,414.1,389.1,428,340,428z"/>
<g>
	<path class="st1" d="M367.5,391.2c-1.9,0-3.8-0.6-5.3-1.9c-3.5-2.9-3.9-8.1-1-11.6l21.7-25.8c2.9-3.5,8.1-3.9,11.6-1
		s3.9,8.1,1,11.6l-21.7,25.8C372.2,390.2,369.8,391.2,367.5,391.2z"/>
	<path class="st1" d="M185.6,9.9l-7.3,21.9c-1.5,4.3,0.9,9,5.2,10.5c0.9,0.3,1.8,0.4,2.6,0.4c3.5,0,6.7-2.2,7.8-5.6l10.7-31.9
		C198.1,6.5,191.8,8.1,185.6,9.9z"/>
</g>
<path class="st3" d="M42.9,397.8l7.1-64.9c0.6-5.1-1.3-10.2-4.9-13.7L1,278C4.7,322,19.6,362.9,42.9,397.8z"/>
<path class="st1" d="M256,0c-9.3,0-18.4,0.5-27.4,1.5l-0.9,19.4c-2.2,6.5,1.3,13.5,7.8,15.7c1.3,0.4,2.6,0.6,3.9,0.6
	c5.2,0,10-3.3,11.8-8.5l9.5-28.6C259.2,0.1,257.6,0,256,0z"/>
</svg>
