<svg id="color_line" height="512" viewBox="0 0 74 74" width="512" xmlns="http://www.w3.org/2000/svg" data-name="color line"><path d="m29.786 62.834c0 4.38 4.053 7.926 9.059 7.926 4.318 0 7.894-2.619 8.821-6.142 4.265-.325 7.576-3.453 7.576-7.254a6.12 6.12 0 0 0 -.795-3.059c4.318-.255 7.735-3.407 7.735-7.254a6.22 6.22 0 0 0 -.556-2.6 8.927 8.927 0 0 0 4.821-7.695c0-3.94-2.861-7.3-6.861-8.575a6.253 6.253 0 0 0 .238-1.715c0-3.87-3.417-7-7.761-7.254a6.144 6.144 0 0 0 .795-3.082c0-3.778-3.311-6.907-7.576-7.231-.927-3.523-4.5-6.142-8.821-6.142-4.545.222-6.675 3.546-6.675 7.926z" fill="#fe7058"/><path d="m45.745 64.18a5.165 5.165 0 0 0 1.921.439c-.208 2.3-2.746 4.311-4.346 5.1.8-.889 2.115-4.389 2.425-5.539z" fill="#ea6453"/><path d="m51.171 51.021c.18.58 3.673.854 4.069 6.339a7.183 7.183 0 0 1 -4.32 6.39 6.664 6.664 0 0 0 1.67-4.37 6.131 6.131 0 0 0 -.8-3.06c-1.603-2.89-1.579-4.869-.619-5.299z" fill="#ea6453"/><path d="m61.63 44.46a6.211 6.211 0 0 1 .55 2.59 7.208 7.208 0 0 1 -4.32 6.38 7.145 7.145 0 0 0 1.67-4.37c.126-2.31-.936-4.2-1.391-4.45 3.841.84 5.651-2.59 5.651-5.84 0-3.94-2.86-7.3-6.86-8.57a6.264 6.264 0 0 0 .24-1.72c0-3.87-3.42-7-7.76-7.25a6.142 6.142 0 0 0 .79-3.08c0-3.78-3.31-6.91-7.57-7.23-.93-3.53-4.51-6.15-8.83-6.15a7.528 7.528 0 0 0 -2.47.51 6.483 6.483 0 0 1 5.13-2.52c4.32 0 7.89 2.62 8.82 6.14 4.27.33 7.58 3.46 7.58 7.23a6.161 6.161 0 0 1 -.8 3.09c4.35.25 7.76 3.38 7.76 7.25a6.663 6.663 0 0 1 -.23 1.72c4 1.27 6.86 4.63 6.86 8.57a8.951 8.951 0 0 1 -4.82 7.7z" fill="#ea6453"/><path d="m47.185 22.49a.5.5 0 0 1 -.02-1c3.373-.138 4.4-2.378 4.439-2.473a.5.5 0 0 1 .918.4c-.051.119-1.29 2.913-5.317 3.077z" fill="#323c6b"/><path d="m54.03 28.686a.5.5 0 0 1 -.137-.981 9.84 9.84 0 0 1 5.875.015.5.5 0 0 1 -.362.932 9.019 9.019 0 0 0 -5.238.015.517.517 0 0 1 -.138.019z" fill="#323c6b"/><path d="m54.281 54.459a.5.5 0 0 1 -.462-.308 6.119 6.119 0 0 0 -2.871-2.683.5.5 0 1 1 .446-.895 6.967 6.967 0 0 1 3.349 3.2.5.5 0 0 1 -.462.69z" fill="#323c6b"/><path d="m47.667 65.119h-.032a7.653 7.653 0 0 1 -5.17-2.693.5.5 0 1 1 .782-.623 6.694 6.694 0 0 0 4.453 2.317.5.5 0 0 1 -.031 1z" fill="#323c6b"/><path d="m39.448 15.2h-.054a.5.5 0 0 1 -.443-.551c.613-5.674 6.23-6.241 6.287-6.246a.5.5 0 0 1 .542.453.5.5 0 0 1 -.452.543 6 6 0 0 0 -5.382 5.357.5.5 0 0 1 -.498.444z" fill="#323c6b"/><path d="m59.751 45.361a7.752 7.752 0 0 1 -5.019-2.129.5.5 0 0 1 .647-.763c3.436 2.918 5.9 1.607 6 1.55a.5.5 0 0 1 .5.869 4.507 4.507 0 0 1 -2.128.473z" fill="#323c6b"/><circle cx="53.195" cy="40.855" fill="#eeefee" r="2.729"/><path d="m53.195 44.084a3.229 3.229 0 1 1 3.229-3.229 3.233 3.233 0 0 1 -3.229 3.229zm0-5.459a2.229 2.229 0 1 0 2.229 2.229 2.232 2.232 0 0 0 -2.229-2.229z" fill="#323c6b"/><circle cx="39.209" cy="17.421" fill="#eeefee" r="2.729"/><path d="m39.209 20.65a3.229 3.229 0 1 1 3.229-3.229 3.233 3.233 0 0 1 -3.229 3.229zm0-5.458a2.229 2.229 0 1 0 2.229 2.229 2.232 2.232 0 0 0 -2.229-2.23z" fill="#323c6b"/><circle cx="41.766" cy="59.623" fill="#eeefee" r="2.729"/><path d="m41.766 62.853a3.229 3.229 0 1 1 3.234-3.23 3.233 3.233 0 0 1 -3.234 3.23zm0-5.458a2.229 2.229 0 1 0 2.234 2.228 2.232 2.232 0 0 0 -2.234-2.229z" fill="#323c6b"/><path d="m36.762 42.983a.5.5 0 0 1 -.5-.5v-7.165a.5.5 0 0 1 .187-.39l3.777-3.028a.5.5 0 1 1 .626.78l-3.589 2.879v6.925a.5.5 0 0 1 -.501.499z" fill="#323c6b"/><circle cx="42.742" cy="30.707" fill="#eeefee" r="2.718"/><path d="m42.742 33.925a3.218 3.218 0 1 1 3.218-3.218 3.221 3.221 0 0 1 -3.218 3.218zm0-5.436a2.218 2.218 0 1 0 2.218 2.218 2.221 2.221 0 0 0 -2.218-2.217z" fill="#323c6b"/><path d="m41.608 50.214a.5.5 0 0 1 -.485-.379c-.617-2.484.372-4.334 2.938-5.5a.5.5 0 0 1 .413.91c-2.122.964-2.878 2.345-2.381 4.348a.5.5 0 0 1 -.365.606.516.516 0 0 1 -.12.015z" fill="#323c6b"/><path d="m17.924 62.743h-5.931v-1h5.932a.852.852 0 0 0 .729-.416l3.176-5.368a1.856 1.856 0 0 1 1.59-.906h6.366v1h-6.366a.851.851 0 0 0 -.73.416l-3.176 5.367a1.856 1.856 0 0 1 -1.59.907z" fill="#323c6b"/><path d="m9.802 35.946h19.984v1h-19.984z" fill="#323c6b"/><path d="m19.184 46.752h10.602v1h-10.602z" fill="#323c6b"/><path d="m29.786 18.1h-8.065a1.855 1.855 0 0 1 -1.591-.9l-3.166-5.356a.853.853 0 0 0 -.73-.416h-4.683v-1h4.683a1.856 1.856 0 0 1 1.591.907l3.167 5.356a.852.852 0 0 0 .73.417h8.065z" fill="#323c6b"/><path d="m17.406 25.405h12.38v1h-12.38z" fill="#323c6b"/><circle cx="8.324" cy="10.923" fill="#27ccbc" r="3.228"/><circle cx="14.175" cy="25.908" fill="#27ccbc" r="3.228"/><circle cx="6.575" cy="36.446" fill="#27ccbc" r="3.228"/><circle cx="15.951" cy="47.256" fill="#27ccbc" r="3.228"/><circle cx="8.726" cy="62.24" fill="#27ccbc" r="3.228"/><path d="m11.55 10.92a3.265 3.265 0 0 1 -1.27 2.58 3.181 3.181 0 0 0 .06-.62 3.225 3.225 0 0 0 -5.18-2.57 3.224 3.224 0 0 1 6.39.61z" fill="#21b3a9"/><path d="m17.4 25.91a3.217 3.217 0 0 1 -1.26 2.56 2.908 2.908 0 0 0 .06-.6 3.229 3.229 0 0 0 -3.23-3.23 3.339 3.339 0 0 0 -1.96.65 3.225 3.225 0 0 1 6.39.62z" fill="#21b3a9"/><path d="m9.8 36.45a3.245 3.245 0 0 1 -1.27 2.57 3.18 3.18 0 0 0 .06-.62 3.218 3.218 0 0 0 -3.22-3.22 3.339 3.339 0 0 0 -1.96.65 3.225 3.225 0 0 1 6.39.62z" fill="#21b3a9"/><path d="m19.18 47.26a3.226 3.226 0 0 1 -1.27 2.56 3.075 3.075 0 0 0 .06-.61 3.233 3.233 0 0 0 -5.19-2.56 3.229 3.229 0 0 1 6.4.61z" fill="#21b3a9"/><path d="m11.95 62.24a3.217 3.217 0 0 1 -1.26 2.56 2.908 2.908 0 0 0 .06-.6 3.233 3.233 0 0 0 -5.19-2.57 3.224 3.224 0 0 1 6.39.61z" fill="#21b3a9"/><g fill="#323c6b"><path d="m28.274 68.583a.5.5 0 0 1 -.428-.24 10.621 10.621 0 0 1 -1.561-5.509v-2.834a.5.5 0 0 1 1 0v2.834a9.62 9.62 0 0 0 1.415 4.99.5.5 0 0 1 -.427.76z"/><path d="m52.751 9.555a.5.5 0 0 1 -.345-.138l-.088-.084c-.139-.133-.278-.267-.428-.391a.5.5 0 1 1 .639-.77c.168.14.325.289.481.439l.086.083a.5.5 0 0 1 -.345.862z"/><path d="m49.834 7.55a.5.5 0 0 1 -.214-.048 11.514 11.514 0 0 0 -2.271-.8.5.5 0 0 1 -.333-.266 10.416 10.416 0 0 0 -2.87-3.545.5.5 0 1 1 .626-.78 11.439 11.439 0 0 1 3.035 3.675 12.526 12.526 0 0 1 2.241.815.5.5 0 0 1 -.215.952z"/><path d="m38.845 71.261c-5.271 0-9.559-3.78-9.559-8.426v-52.147c0-5.057 2.673-8.208 7.151-8.426 4.36 0 8.09 2.522 9.23 6.175 4.408.486 7.69 3.743 7.69 7.7a6.725 6.725 0 0 1 -.525 2.654c4.257.571 7.492 3.826 7.492 7.683a6.773 6.773 0 0 1 -.144 1.39 9.73 9.73 0 0 1 6.766 8.9 9.327 9.327 0 0 1 -4.692 7.905 6.734 6.734 0 0 1 .427 2.385c0 3.855-3.224 7.11-7.465 7.682a6.659 6.659 0 0 1 .524 2.631c0 3.967-3.282 7.233-7.689 7.721-1.139 3.651-4.87 6.173-9.206 6.173zm-2.384-68c-3.916.192-6.175 2.9-6.175 7.427v52.146c0 4.095 3.839 7.426 8.559 7.426 4.015 0 7.444-2.372 8.338-5.769a.5.5 0 0 1 .445-.371c4.056-.309 7.114-3.213 7.114-6.756a5.593 5.593 0 0 0 -.729-2.811.5.5 0 0 1 .4-.747c4.073-.241 7.264-3.208 7.264-6.755a5.7 5.7 0 0 0 -.511-2.388.5.5 0 0 1 .209-.644 8.412 8.412 0 0 0 4.566-7.259c0-3.6-2.617-6.857-6.513-8.1a.5.5 0 0 1 -.329-.614 5.735 5.735 0 0 0 .219-1.577c0-3.548-3.2-6.516-7.291-6.755a.5.5 0 0 1 -.4-.747 5.636 5.636 0 0 0 .729-2.834c0-3.472-3.125-6.429-7.114-6.732a.5.5 0 0 1 -.442-.371c-.9-3.397-4.324-5.769-8.339-5.769z"/><path d="m8.324 14.652a3.729 3.729 0 1 1 3.729-3.729 3.732 3.732 0 0 1 -3.729 3.729zm0-6.457a2.729 2.729 0 1 0 2.729 2.729 2.732 2.732 0 0 0 -2.729-2.729z"/><path d="m14.175 29.636a3.729 3.729 0 1 1 3.725-3.728 3.732 3.732 0 0 1 -3.725 3.728zm0-6.457a2.729 2.729 0 1 0 2.725 2.729 2.732 2.732 0 0 0 -2.725-2.729z"/><path d="m6.575 40.174a3.728 3.728 0 1 1 3.725-3.728 3.732 3.732 0 0 1 -3.725 3.728zm0-6.457a2.728 2.728 0 1 0 2.725 2.729 2.731 2.731 0 0 0 -2.725-2.729z"/><path d="m15.951 50.984a3.729 3.729 0 1 1 3.729-3.729 3.732 3.732 0 0 1 -3.729 3.729zm0-6.457a2.729 2.729 0 1 0 2.729 2.729 2.732 2.732 0 0 0 -2.729-2.729z"/><path d="m8.726 65.968a3.728 3.728 0 1 1 3.729-3.729 3.732 3.732 0 0 1 -3.729 3.729zm0-6.457a2.728 2.728 0 1 0 2.729 2.728 2.731 2.731 0 0 0 -2.729-2.727z"/></g><path d="m32.828 36.352a.647.647 0 0 1 .648.645l.013 7.469a.646.646 0 0 1 -1.293 0l-.013-7.466a.647.647 0 0 1 .645-.648z" fill="#fff"/><path d="m32.823 33.9a.647.647 0 0 1 .648.645v.339a.646.646 0 0 1 -1.293 0v-.339a.647.647 0 0 1 .645-.645z" fill="#fff"/></svg>