<?xml version="1.0" encoding="utf-8"?>
<!-- Generator: Adobe Illustrator 23.0.3, SVG Export Plug-In . SVG Version: 6.00 Build 0)  -->
<svg version="1.1" id="Layer_1" xmlns="http://www.w3.org/2000/svg" xmlns:xlink="http://www.w3.org/1999/xlink" x="0px" y="0px"
	 viewBox="0 0 512 512" style="enable-background:new 0 0 512 512;" xml:space="preserve">
<style type="text/css">
	.st0{fill:#6D7486;}
	.st1{fill:#C6AC95;}
	.st2{fill:#EFCCAC;}
	.st3{fill:#C19678;}
	.st4{fill:#43DD4A;}
	.st5{fill:#AE8567;}
	.st6{fill:#D84C4C;}
	.st7{fill:#EF6565;}
	.st8{fill:#AD826A;}
	.st9{fill:#F4F8FC;}
	.st10{fill:#896049;}
	.st11{fill:#6A7BC6;}
	.st12{fill:#5D73BA;}
	.st13{fill:#C79A83;}
	.st14{fill:#F2C0AA;}
	.st15{fill:#7988A5;}
	.st16{fill:#A3B3CE;}
</style>
<path class="st0" d="M256,9.8c-3.3,0-6,2.7-6,6v72h12v-72C262,12.5,259.3,9.8,256,9.8z"/>
<path class="st1" d="M186.8,169.8h138.4V312H186.8V169.8z"/>
<path class="st2" d="M186.8,170.8h30V312h-30V170.8z"/>
<path class="st1" d="M373.3,242.2l0.5,228.7h84.5V242.2H373.3z"/>
<path class="st3" d="M342.5,292.8V311h-17.2h-16.1v-18.2h-37.4V311h-31.4v-18.2h-37.4V311h-16.1h-17.2v-18.2h-35.4v176.1h243.7
	V292.8H342.5z"/>
<path class="st4" d="M301,38.2l-45,19.6h0V17.1h0L301,38.2z"/>
<path class="st5" d="M277.3,232.2v28.6h-42.6v-28.6c0-11.8,9.5-21.3,21.3-21.3C267.8,210.9,277.3,220.4,277.3,232.2L277.3,232.2z"/>
<path class="st6" d="M256,78.6l-85.4,92.2h170.8L256,78.6z"/>
<path class="st7" d="M256,78.6l-85.4,92.2h30l70.4-76L256,78.6z"/>
<path class="st8" d="M134.1,292.8h30v176.1h-30V292.8z"/>
<path class="st9" d="M209.1,207.9c-3.3,0-6-2.7-6-6v-4.6c0-3.3,2.7-6,6-6s6,2.7,6,6v4.6C215.1,205.2,212.4,207.9,209.1,207.9z"/>
<path class="st9" d="M209.1,263.6c-3.3,0-6-2.7-6-6v-37.5c0-3.3,2.7-6,6-6s6,2.7,6,6v37.5C215.1,260.9,212.4,263.6,209.1,263.6z"/>
<g>
	<path class="st10" d="M165.7,348.3h-14.5c-3.3,0-6-2.7-6-6s2.7-6,6-6h14.5c3.3,0,6,2.7,6,6S169,348.3,165.7,348.3z"/>
	<path class="st10" d="M238.5,363.5h-18.6c-3.3,0-6-2.7-6-6s2.7-6,6-6h18.6c3.3,0,6,2.7,6,6S241.8,363.5,238.5,363.5z"/>
	<path class="st10" d="M377,342.2h-16.5c-3.3,0-6-2.7-6-6s2.7-6,6-6H377c3.3,0,6,2.7,6,6S380.3,342.2,377,342.2z"/>
	<path class="st10" d="M340.6,394.8h-15.5c-3.3,0-6-2.7-6-6s2.7-6,6-6h15.5c3.3,0,6,2.7,6,6S343.9,394.8,340.6,394.8z"/>
	<path class="st10" d="M185.9,397.9h-14.5c-3.3,0-6-2.7-6-6s2.7-6,6-6h14.5c3.3,0,6,2.7,6,6S189.2,397.9,185.9,397.9z"/>
	<path class="st10" d="M151.5,426.2H134c-3.3,0-6-2.7-6-6s2.7-6,6-6h17.5c3.3,0,6,2.7,6,6S154.8,426.2,151.5,426.2z"/>
	<path class="st10" d="M377,446.5h-17.5c-3.3,0-6-2.7-6-6s2.7-6,6-6H377c3.3,0,6,2.7,6,6S380.3,446.5,377,446.5z"/>
	<path class="st10" d="M298.2,350.1h-14.5c-3.3,0-6-2.7-6-6s2.7-6,6-6h14.5c3.3,0,6,2.7,6,6S301.5,350.1,298.2,350.1z"/>
	<path class="st10" d="M321.4,434.2h-31.5c-3.3,0-6-2.7-6-6s2.7-6,6-6h31.5c3.3,0,6,2.7,6,6S324.7,434.2,321.4,434.2z"/>
	<path class="st10" d="M221.2,454.6h-21.5c-3.3,0-6-2.7-6-6s2.7-6,6-6h21.5c3.3,0,6,2.7,6,6S224.6,454.6,221.2,454.6z"/>
</g>
<path class="st11" d="M289.9,467.8v1.1h-67.8v-45.6c0-10,5.2-19.2,13.8-24.3l20.1-12l20.1,12c8.6,5.1,13.8,14.4,13.8,24.3V467.8z"/>
<path class="st12" d="M235.9,399c-8.6,5.1-13.8,14.4-13.8,24.3v45.6h23v-45.6c0-10,5.2-19.2,13.8-24.3l8.6-5.1L256,387L235.9,399z"
	/>
<path class="st1" d="M53.7,243.2v226.7h85.5l-0.4-225.7L53.7,243.2z"/>
<path class="st2" d="M78.1,246.2H53.7v223.7h30V246.2H78.1z"/>
<path class="st13" d="M131.7,181.4v18.2h-24.2v-18.2H84.8v18.2H60.6v-18.2H38v54.7c0,5.6,4.5,10.1,10.1,10.1c0,0,0,0,0,0h96.2
	c5.6,0,10.1-4.5,10.1-10.1c0,0,0,0,0,0v-54.7H131.7z"/>
<path class="st14" d="M68,236.1v-36.4h-7.3v-18.2H38v54.7c0,5.6,4.5,10.1,10.1,10.1c0,0,0,0,0,0h30C72.5,246.2,68,241.7,68,236.1
	C68,236.1,68,236.1,68,236.1z"/>
<path class="st5" d="M75.5,308.9H54v12h21.5c3.3,0,6-2.7,6-6S78.8,308.9,75.5,308.9L75.5,308.9z"/>
<path class="st5" d="M90.8,411H73.2c-3.3,0-6-2.7-6-6s2.7-6,6-6h17.5c3.3,0,6,2.7,6,6S94.1,411,90.8,411z"/>
<path class="st5" d="M129.2,454.6h-16.5c-3.3,0-6-2.7-6-6s2.7-6,6-6h16.5c3.3,0,6,2.7,6,6S132.6,454.6,129.2,454.6z"/>
<path class="st5" d="M119.6,279.3h-16.5c-3.3,0-6-2.7-6-6s2.7-6,6-6h16.5c3.3,0,6,2.7,6,6S122.9,279.3,119.6,279.3z"/>
<path class="st5" d="M133.3,366.5h-16.5c-3.3,0-6-2.7-6-6s2.7-6,6-6h16.5c3.3,0,6,2.7,6,6S136.6,366.5,133.3,366.5z"/>
<path class="st13" d="M451.4,181.4v18.2h-24.2v-18.2h-22.6v18.2h-24.2v-18.2h-22.6v54.7c0,5.6,4.5,10.1,10.1,10.1c0,0,0,0,0,0h96.2
	c5.6,0,10.1-4.5,10.1-10.1c0,0,0,0,0,0v-54.7H451.4z"/>
<path class="st2" d="M403.3,246.2h-30l0.5,224.7h30L403.3,246.2z"/>
<path class="st14" d="M387.6,236.1v-36.4h-7.4v-18.2h-22.6v54.7c0,5.6,4.5,10.1,10.1,10.1c0,0,0,0,0,0h30
	C392.2,246.2,387.6,241.7,387.6,236.1C387.6,236.1,387.6,236.1,387.6,236.1z"/>
<path class="st5" d="M413.5,317.9h-16.5c-3.3,0-6-2.7-6-6s2.7-6,6-6h16.5c3.3,0,6,2.7,6,6S416.8,317.9,413.5,317.9z"/>
<path class="st5" d="M399.3,365.5h-15.5c-3.3,0-6-2.7-6-6s2.7-6,6-6h15.5c3.3,0,6,2.7,6,6S402.6,365.5,399.3,365.5z"/>
<path class="st5" d="M433.7,411h-17.5c-3.3,0-6-2.7-6-6s2.7-6,6-6h17.5c3.3,0,6,2.7,6,6S437,411,433.7,411z"/>
<path class="st5" d="M436.5,262.4c-3.3,0-6,2.7-6,6s2.7,6,6,6H458v-12H436.5z"/>
<path class="st5" d="M437.4,446.6c-3.3,0-6,2.7-6,6s2.7,6,6,6H458v-12H437.4z"/>
<path class="st15" d="M463.1,468.9H48.9c-12.7,0-23,10.3-23,23c0,0,0,0,0,0v4.3h460.4v-4.3C486.2,479.2,475.9,468.9,463.1,468.9
	C463.2,468.9,463.2,468.9,463.1,468.9z"/>
<path class="st16" d="M78.8,468.9h-30c-12.7,0-23,10.3-23,23c0,0,0,0,0,0v4.3h30v-4.3C55.8,479.2,66.1,468.9,78.8,468.9
	C78.8,468.9,78.8,468.9,78.8,468.9z"/>
</svg>
